<svg width="1200" height="630" xmlns="http://www.w3.org/2000/svg">
  <defs>
    <linearGradient id="bg" x1="0%" y1="0%" x2="100%" y2="100%">
      <stop offset="0%" style="stop-color:#18181b"/>
      <stop offset="100%" style="stop-color:#09090b"/>
    </linearGradient>
  </defs>
  <rect width="1200" height="630" fill="url(#bg)"/>
  <!-- Logo circle -->
  <circle cx="520" cy="220" r="33" fill="#18181b" stroke="#ffffff" stroke-width="1.5"/>
  <path d="M520 251C534.36 251 546 239.36 546 225C546 210.64 534.36 199 520 199C505.64 199 494 210.64 494 225C494 239.36 505.64 251 520 251Z" stroke="#ffffff" stroke-width="1.5" fill="none"/>
  <path d="M508 230C508 230 515 222 520 222C525 222 532 230 532 230" stroke="#ffffff" stroke-width="1.5" stroke-linecap="round" fill="none"/>
  <path d="M508 238C508 238 515 230 520 230C525 230 532 238 532 238" stroke="#ffffff" stroke-width="1.5" stroke-linecap="round" fill="none"/>
  <!-- Logo text -->
  <text x="600" y="235" font-family="system-ui, -apple-system, sans-serif" font-size="48" font-weight="700" fill="#ffffff" letter-spacing="-0.02em">JARWATER</text>
  <!-- Title -->
  <text x="600" y="350" font-family="system-ui, -apple-system, sans-serif" font-size="56" font-weight="600" fill="#ffffff" text-anchor="middle" dominant-baseline="middle">Start et Prosjekt</text>
  <!-- Subtitle -->
  <text x="600" y="410" font-family="system-ui, -apple-system, sans-serif" font-size="24" fill="#a1a1aa" text-anchor="middle">Motion Studio</text>
  <!-- Accent line -->
  <rect x="540" y="460" width="120" height="4" fill="#6366f1" rx="2"/>
</svg>